<svg width="467" height="527" viewBox="0 0 467 527" fill="none" xmlns="http://www.w3.org/2000/svg">
<path fill-rule="evenodd" clip-rule="evenodd" d="M173.67 1.825C172.762 2.828 172.357 4.022 172.771 4.478C173.185 4.935 172.947 4.975 172.242 4.569C171.086 3.903 158.754 13.835 152.418 20.535C151.26 21.76 149.335 23.285 148.14 23.924C146.945 24.564 146.274 25.584 146.65 26.192C147.04 26.824 146.878 27.015 146.269 26.639C145.684 26.277 144.089 27.308 142.725 28.929C141.361 30.55 140.026 31.657 139.759 31.389C139.491 31.122 138.091 32.306 136.647 34.021C135.204 35.737 134.023 36.826 134.023 36.441C134.023 36.057 133.353 36.298 132.534 36.978C131.715 37.658 131.335 38.682 131.689 39.255C132.042 39.827 131.878 40.015 131.323 39.672C130.768 39.329 129.236 40.232 127.918 41.679C126.601 43.126 126.155 43.942 126.928 43.494C127.971 42.887 128.104 43.039 127.443 44.082C126.954 44.855 126.547 45.787 126.538 46.154C126.53 46.52 126.2 47.144 125.804 47.539C125.409 47.934 125.271 47.297 125.497 46.122C125.723 44.948 125.572 43.987 125.162 43.987C123.93 43.987 117.946 50.564 118.505 51.303C118.79 51.679 118.736 51.775 118.386 51.517C117.289 50.707 111.964 55.083 112.666 56.218C113.032 56.811 112.889 57.023 112.349 56.688C110.979 55.842 103.853 61.903 104.668 63.222C105.053 63.845 104.864 64.007 104.218 63.608C103.605 63.229 101.185 64.622 98.8391 66.703C96.4931 68.784 93.0041 71.837 91.0851 73.487C85.8891 77.957 78.3651 85.257 79.6061 84.626C80.2021 84.323 80.6901 84.723 80.6901 85.515C80.6901 86.621 80.3721 86.691 79.3201 85.819C78.2541 84.934 77.3021 85.303 75.0221 87.488C73.4121 89.031 72.3731 90.744 72.7131 91.295C73.0781 91.885 72.8231 91.981 72.0911 91.529C70.5881 90.6 63.8061 96.827 64.7161 98.3C65.0551 98.848 64.8541 99.001 64.2711 98.64C63.2931 98.036 50.7481 108.105 43.4011 115.391C41.6841 117.094 39.4341 119.008 38.4011 119.644C37.3681 120.28 36.6361 121.293 36.7731 121.894C36.9111 122.495 36.2861 122.987 35.3851 122.987C33.5281 122.987 24.3771 131.047 24.7981 132.311C24.9491 132.765 24.6771 132.891 24.1931 132.592C22.9841 131.845 18.8201 136.432 19.7641 137.472C20.1811 137.931 19.9421 137.972 19.2311 137.562C18.4001 137.083 15.2701 139.206 10.4541 143.516C3.96206 149.326 3.13807 150.433 4.24607 151.851C5.39207 153.319 5.33806 153.342 3.72306 152.073C2.15606 150.842 1.70707 150.874 0.259065 152.323C-1.29393 153.875 2.53506 153.987 57.1591 153.987H115.724L115.925 166.737C116.125 179.474 118.307 192.987 120.162 192.987C120.701 192.987 120.846 193.464 120.486 194.047C119.668 195.371 121.966 201.14 123.046 200.473C123.481 200.204 123.583 200.955 123.272 202.142C122.852 203.749 123.043 204.093 124.02 203.489C124.857 202.972 125.09 203.069 124.665 203.758C123.822 205.12 126.023 210.105 127.158 209.404C127.621 209.117 127.704 209.655 127.342 210.599C126.859 211.855 127.038 212.096 128.008 211.497C128.888 210.952 129.093 211.064 128.62 211.831C127.741 213.252 130.386 217.261 131.523 216.231C131.974 215.822 132.053 215.996 131.698 216.618C130.637 218.476 141.635 231.345 143.369 230.273C143.898 229.946 144.056 230.124 143.719 230.67C142.805 232.149 150.582 239.378 152.087 238.447C152.854 237.974 153.079 238.088 152.673 238.744C152.025 239.793 160.278 246.538 162.977 247.166C163.736 247.343 165.216 248.309 166.267 249.314C167.318 250.319 168.841 250.887 169.652 250.576C170.463 250.265 170.878 250.412 170.574 250.904C169.906 251.985 185.528 257.778 190.485 258.286C192.428 258.485 194.319 258.95 194.687 259.318C195.856 260.487 197.172 260.038 196.39 258.737C195.833 257.809 196.055 257.824 197.251 258.793C200.127 261.123 215.699 262.458 227.136 261.354C232.849 260.803 237.671 260.455 237.851 260.581C238.032 260.707 236.999 264.084 235.556 268.085C232.112 277.633 231.264 288.51 233.336 296.578C235.277 304.138 240.31 315.274 243.002 317.966C244.113 319.077 244.76 319.987 244.438 319.987C244.116 319.987 245.493 322.222 247.498 324.953C251.797 330.809 252.292 330.493 237.342 331.456C227.378 332.099 197.981 336.319 191.523 338.033C189.323 338.618 186.398 339.226 185.023 339.385C183.648 339.544 181.934 339.744 181.214 339.83C180.494 339.917 180.18 340.432 180.516 340.976C180.852 341.519 180.504 341.725 179.742 341.433C178.146 340.82 163.855 344.54 159.773 346.63C158.261 347.405 157.023 347.827 157.023 347.568C157.023 346.938 147.231 351.192 138.32 355.692C134.358 357.693 131.39 359.772 131.724 360.313C132.059 360.854 131.888 361.021 131.345 360.686C130.102 359.918 122.788 364.797 123.486 365.928C123.77 366.386 123.219 366.699 122.262 366.624C121.306 366.549 120.635 367.049 120.773 367.737C120.91 368.424 120.685 368.891 120.273 368.775C118.854 368.373 114.968 371.089 115.569 372.062C115.901 372.598 115.576 372.913 114.847 372.762C114.119 372.611 113.635 373.049 113.773 373.737C113.91 374.424 113.677 374.874 113.254 374.737C111.825 374.273 103.947 382.347 104.478 383.731C104.765 384.479 104.586 384.835 104.08 384.522C103.009 383.86 99.8771 387.942 100.581 389.081C100.842 389.503 100.529 390.174 99.8851 390.572C99.1041 391.055 98.9841 390.86 99.5231 389.987C100.074 389.095 99.9431 388.919 99.1091 389.434C98.4371 389.849 98.1371 390.842 98.4431 391.64C98.7501 392.438 98.5981 392.842 98.1071 392.539C96.8631 391.77 90.7991 402.797 91.6511 404.28C92.0321 404.944 91.9641 405.142 91.5001 404.72C90.3601 403.684 88.2891 408.834 85.9641 418.487C83.9631 426.794 83.1881 447.987 84.8841 447.987C85.3581 447.987 85.5521 449.001 85.3151 450.24C85.0781 451.479 85.4361 453.841 86.1101 455.49C87.4381 458.738 87.6391 459.524 87.8711 462.344C87.9611 463.448 88.5641 463.993 89.3561 463.689C90.0901 463.408 90.6901 463.79 90.6901 464.538C90.6901 465.287 90.3201 465.67 89.8681 465.391C89.4161 465.112 89.3131 465.579 89.6391 466.429C89.9661 467.28 90.7121 467.679 91.2981 467.317C91.9271 466.928 92.1431 467.237 91.8241 468.073C91.0811 470.025 92.7801 474.255 94.0031 473.499C94.6001 473.13 94.7361 473.572 94.3421 474.599C93.8981 475.756 94.0611 476.082 94.8421 475.599C95.5571 475.157 95.8051 475.392 95.4891 476.215C95.2081 476.948 96.5111 479.221 98.3851 481.267C100.259 483.313 101.55 484.987 101.253 484.987C100.956 484.987 101.518 485.876 102.502 486.963C103.485 488.05 104.649 488.718 105.088 488.447C105.526 488.176 106.21 488.481 106.608 489.125C107.087 489.9 106.857 490.052 105.928 489.574C105.155 489.177 106.998 491.13 110.023 493.914C113.048 496.698 116.109 498.759 116.825 498.493C117.541 498.227 117.866 498.432 117.547 498.948C116.87 500.043 120.934 502.526 122.786 502.15C123.481 502.009 124.324 502.608 124.66 503.483C125.362 505.313 132.466 509.211 133.399 508.277C133.742 507.934 134.023 508.13 134.023 508.712C134.023 510.142 141.853 513.196 143.339 512.345C143.99 511.972 144.175 512.049 143.75 512.517C141.845 514.611 167.912 522.236 184.523 524.443C198.187 526.258 224.874 527.001 236.091 525.878C240.729 525.414 246.773 524.802 249.523 524.517C261.834 523.244 288.786 516.151 286.778 514.712C285.943 514.114 286.285 513.981 287.803 514.314C290.081 514.815 301.007 511.075 303.633 508.896C304.397 508.261 305.023 508.027 305.023 508.375C305.023 509.47 323.204 499.947 330.674 494.94C340.601 488.285 342.93 486.1 342.496 483.849C342.294 482.795 342.561 482.202 343.092 482.529C343.622 482.857 343.769 483.589 343.419 484.156C342.99 484.849 343.422 484.844 344.739 484.139C347.525 482.648 354.085 474.398 353.235 473.455C352.843 473.021 353.049 472.968 353.693 473.336C355.122 474.154 359.255 469.171 358.355 467.715C358.002 467.145 358.194 466.974 358.78 467.337C359.943 468.056 366.272 458.57 365.287 457.584C364.959 457.256 365.241 456.987 365.915 456.987C366.589 456.987 366.863 456.537 366.523 455.987C366.183 455.437 366.36 454.987 366.917 454.987C368.293 454.987 372.169 446.033 371.36 444.724C370.999 444.139 371.192 443.973 371.796 444.347C373.107 445.157 374.444 441.477 373.433 439.841C373.024 439.18 373.147 438.946 373.718 439.299C374.317 439.668 375.606 435.995 376.912 430.203C378.765 421.983 379.057 418.036 378.812 404.57C378.616 393.744 378.157 388.531 377.379 388.272C376.75 388.063 376.483 386.942 376.787 385.783C377.196 384.219 376.999 383.884 376.026 384.485C375.164 385.018 374.955 384.906 375.417 384.159C376.457 382.475 375.002 375.882 373.759 376.65C373.163 377.018 373.011 376.816 373.404 376.18C374.4 374.567 367.027 358.879 365.643 359.668C365.027 360.02 364.843 359.953 365.233 359.521C366.212 358.436 363.165 352.781 361.992 353.506C361.472 353.828 361.296 353.438 361.603 352.64C361.909 351.842 361.609 350.849 360.937 350.434C360.155 349.95 359.971 350.094 360.428 350.832C361.897 353.21 360.183 351.881 358.534 349.364C357.389 347.616 357.267 347.002 358.169 347.525C358.914 347.957 358.445 347.126 357.128 345.679C355.81 344.232 354.353 343.283 353.889 343.57C353.425 343.856 353.299 343.431 353.609 342.625C353.983 341.649 351.084 338.539 344.937 333.323C339.858 329.013 335.324 325.599 334.863 325.737C334.401 325.874 334.136 325.609 334.273 325.148C334.411 324.687 333.051 323.064 331.253 321.542C328.789 319.457 327.659 319.044 326.67 319.865C325.689 320.679 325.356 320.591 325.356 319.515C325.356 318.723 325.844 318.314 326.44 318.607C327.035 318.9 326.464 318.208 325.169 317.069C323.874 315.93 322.4 315.254 321.894 315.567C321.388 315.88 321.097 315.54 321.248 314.811C321.4 314.079 320.746 313.548 319.784 313.624C318.827 313.699 318.26 313.413 318.523 312.987C318.786 312.562 318.331 311.658 317.512 310.978C316.693 310.298 316.023 309.955 316.023 310.214C316.023 310.474 313.942 308.721 311.398 306.318C307.455 302.593 306.534 302.136 305.148 303.218C303.732 304.324 303.685 304.279 304.787 302.868C305.867 301.484 305.395 300.663 301.537 297.21C299.054 294.988 297.023 292.862 297.023 292.486C297.023 291.027 293.246 287.093 292.495 287.771C292.059 288.165 291.996 287.973 292.355 287.346C292.713 286.718 292.052 284.046 290.885 281.408C287.82 274.479 288.129 267.495 291.852 259.538C293.498 256.021 294.548 252.845 294.184 252.481C293.82 252.118 293.973 251.911 294.523 252.022C296.745 252.47 297.198 251.901 295.895 250.295C294.814 248.961 294.804 248.772 295.85 249.401C297.501 250.395 301.431 246.455 300.42 244.82C300.022 244.176 300.154 243.95 300.723 244.302C301.863 245.006 306.319 240.708 305.532 239.663C305.252 239.291 305.319 239.208 305.681 239.478C306.736 240.266 309.065 237.864 308.357 236.719C307.998 236.138 308.194 235.974 308.799 236.349C309.396 236.718 310.15 236.59 310.475 236.065C310.8 235.54 310.268 234.646 309.294 234.079C308.32 233.512 307.995 233.034 308.573 233.017C309.15 233.001 310.187 233.549 310.876 234.237C311.88 235.238 313.102 234.452 317.006 230.297C320.025 227.084 321.433 224.897 320.703 224.556C320.054 224.253 320.461 224.233 321.607 224.511C323.188 224.894 324.997 223.611 329.107 219.191C336.999 210.704 341.558 204.98 341.273 203.918C341.135 203.406 341.461 202.987 341.997 202.987C343.152 202.987 346.429 197.001 345.299 196.957C344.872 196.94 345.292 196.478 346.231 195.93C347.274 195.322 347.695 194.296 347.312 193.297C346.932 192.308 347.089 191.91 347.707 192.292C348.845 192.995 352.91 183.174 355.696 172.987C358.174 163.927 358.293 133.068 355.882 124.987C354.979 121.962 353.953 118.231 353.602 116.696C353.251 115.161 352.64 114.105 352.244 114.35C351.847 114.595 351.454 113.654 351.371 112.26C351.287 110.866 350.612 109.341 349.871 108.872C349.129 108.402 348.886 108.011 349.33 108.002C349.773 107.994 349.353 106.661 348.396 105.041C347.439 103.421 346.32 102.304 345.909 102.558C345.498 102.812 344.836 102.493 344.438 101.849C343.968 101.089 344.149 100.947 344.953 101.443C345.83 101.986 346.094 101.521 345.857 99.848C345.673 98.549 344.998 97.487 344.356 97.487C343.715 97.487 342.886 97.183 342.515 96.812C341.698 95.995 344.114 96.287 345.534 97.176C346.09 97.525 347.414 97.175 348.475 96.398C349.537 95.622 349.982 94.98 349.464 94.972C348.947 94.964 349.648 94.365 351.023 93.641C352.398 92.916 353.399 91.764 353.248 91.081C353.097 90.397 353.446 90.13 354.024 90.487C354.601 90.844 356.622 89.588 358.515 87.695C360.408 85.802 362.124 84.421 362.329 84.626C362.534 84.832 363.562 83.992 364.612 82.76C365.95 81.193 366.025 80.906 364.862 81.803C363.579 82.793 363.032 82.81 362.458 81.881C362.003 81.146 362.136 80.939 362.799 81.349C363.396 81.718 364.172 81.555 364.523 80.987C364.874 80.419 365.566 80.204 366.06 80.51C367.111 81.16 381.967 69.229 382.141 67.594C382.207 66.985 382.169 66.037 382.058 65.487C381.947 64.937 382.19 64.821 382.598 65.228C383.005 65.636 384.055 65.419 384.931 64.746C385.845 64.043 385.671 64.555 384.523 65.946C383.346 67.374 384.441 66.795 387.188 64.539C390.252 62.021 391.678 60.154 391.343 59.097C390.902 57.7 390.977 57.685 391.913 58.987C392.875 60.324 393.45 59.761 393.153 57.773C393.095 57.38 393.604 57.268 394.285 57.523C394.966 57.778 397.839 55.85 400.671 53.237C403.502 50.625 405.989 48.487 406.197 48.487C407.59 48.487 415.876 40.558 415.358 39.72C414.978 39.105 415.199 38.978 415.898 39.41C416.586 39.835 418.641 38.772 420.803 36.873L424.523 33.604L424.806 45.487C424.962 52.023 424.864 57.959 424.588 58.679C424.312 59.398 423.172 59.987 422.054 59.987C420.937 59.987 419.116 60.894 418.008 62.002C416.013 63.997 415.996 64.937 416.258 160.038C416.49 244.109 416.71 256.178 418.023 257.008C418.848 257.53 419.151 257.963 418.696 257.972C418.242 257.98 419.245 259.144 420.926 260.559C422.607 261.973 424.441 262.847 425.003 262.5C425.564 262.153 426.023 262.346 426.023 262.928C426.023 263.556 428.476 263.987 432.055 263.987C438.803 263.987 445.594 261.72 444.44 259.853C443.998 259.137 444.145 258.944 444.818 259.36C445.426 259.736 446.411 259.13 447.008 258.015C447.605 256.9 447.74 255.98 447.308 255.972C446.876 255.963 447.198 255.53 448.023 255.008C449.339 254.176 449.523 242.43 449.523 159.178C449.523 78.992 449.305 64.032 448.113 62.595C447.337 61.661 446.076 61.136 445.311 61.43C444.545 61.724 444.194 61.519 444.53 60.976C444.866 60.432 444.214 59.987 443.082 59.987C441.273 59.987 440.59 59.017 440.868 56.845C440.914 56.492 441.003 47.6 441.066 37.085C441.129 26.57 441.522 18.178 441.939 18.435C443.529 19.418 447.114 15.851 446.496 13.902C446.143 12.789 446.36 11.987 447.015 11.987C447.634 11.987 447.882 12.406 447.566 12.918C446.464 14.7 448.896 15.008 450.22 13.254C450.953 12.282 452.447 10.966 453.538 10.33C454.63 9.694 455.399 8.648 455.248 8.006C455.097 7.364 455.443 7.128 456.016 7.483C456.87 8.011 461.726 4.913 466.466 0.816C466.985 0.367 401.69 0 321.365 0C181.28 0.001 175.253 0.075 173.67 1.825ZM122.523 48.987C122.183 49.537 121.369 49.98 120.714 49.972C119.998 49.962 120.122 49.569 121.023 48.987C122.944 47.745 123.29 47.745 122.523 48.987ZM239.523 64.135C245.4 65.501 245.333 65.479 247.794 66.831C249.043 67.518 250.618 67.762 251.294 67.373C251.97 66.984 252.197 67.027 251.799 67.467C251.401 67.908 253.086 69.544 255.544 71.102C258.002 72.661 261.971 75.742 264.365 77.948C266.759 80.154 269.011 81.741 269.37 81.473C269.729 81.206 269.811 81.274 269.551 81.626C268.936 82.458 274.008 88.487 275.323 88.487C275.878 88.487 276.451 89.297 276.596 90.287C276.938 92.612 279.015 95.11 280.067 94.46C280.517 94.182 281.21 94.481 281.608 95.125C282.06 95.856 281.899 96.028 281.178 95.582C280.543 95.19 280.023 95.091 280.023 95.362C280.023 96.107 286.261 105.987 286.731 105.987C286.957 105.987 286.82 105.467 286.428 104.832C285.98 104.108 286.154 103.95 286.895 104.408C287.545 104.809 287.976 105.666 287.853 106.312C287.504 108.158 289.053 111.987 290.149 111.987C290.695 111.987 290.885 112.401 290.573 112.906C290.26 113.412 290.7 114.521 291.55 115.371C292.399 116.22 293.078 117.157 293.059 117.451C292.874 120.22 293.175 121.011 294.178 120.392C294.836 119.984 295.063 120.114 294.704 120.694C294.359 121.252 294.942 124.17 295.999 127.178C303.839 149.486 307.126 179.858 303.543 196.892C302.729 200.762 302.355 204.69 302.713 205.621C303.133 206.715 302.974 207.075 302.265 206.637C301.238 206.002 299.765 208.728 300.107 210.633C300.468 212.651 299.951 214.06 299.052 213.505C298.518 213.175 297.799 214.03 297.454 215.405C297.109 216.78 296.186 218.437 295.402 219.087C294.608 219.746 294.205 221.203 294.491 222.378C294.774 223.538 294.744 223.919 294.427 223.226C293.812 221.885 284.311 231.677 284.773 233.176C284.911 233.622 284.686 233.934 284.273 233.869C282.258 233.55 281.901 234.144 283.151 235.737C284.388 237.315 284.355 237.355 282.808 236.144C281.346 234.998 280.684 235.088 278.308 236.757C273.672 240.015 266.189 242.899 259.236 244.11C250.162 245.69 234.911 244.717 228.118 242.124C225.145 240.989 222.22 240.342 221.618 240.684C221.016 241.027 220.861 240.935 221.275 240.479C221.689 240.023 220.168 238.593 217.895 237.302C215.622 236.011 211.634 233.173 209.034 230.996C206.433 228.819 203.98 227.364 203.581 227.762C203.182 228.161 203.006 227.812 203.19 226.987C203.392 226.078 202.932 225.618 202.023 225.82C201.198 226.004 200.848 225.828 201.246 225.43C202.295 224.382 196.049 216.853 194.781 217.637C194.134 218.036 194.008 217.82 194.46 217.088C194.897 216.382 194.312 215.105 193.049 214.01C191.863 212.981 190.868 211.767 190.839 211.313C190.736 209.706 188.333 207.01 187.63 207.713C187.238 208.105 187.214 207.652 187.577 206.707C187.956 205.719 187.766 204.987 187.13 204.987C186.521 204.987 186.023 204.285 186.023 203.428C186.023 202.571 185.573 202.147 185.023 202.487C184.137 203.035 183.602 201.77 183.885 199.795C184.1 198.295 179.273 189.07 178.617 189.726C178.232 190.111 178.192 189.71 178.528 188.835C178.863 187.961 178.536 186.624 177.799 185.866C177.063 185.108 176.365 183.226 176.248 181.684C176.132 180.142 175.63 178.117 175.134 177.184C174.637 176.251 173.26 170.996 172.073 165.506C166.324 138.915 166.628 119.527 173.082 101.098C174.12 98.134 174.687 95.252 174.342 94.694C173.955 94.067 174.222 93.992 175.038 94.497C176.008 95.096 176.187 94.855 175.704 93.599C175.342 92.655 175.423 92.116 175.884 92.401C176.345 92.686 177.338 91.697 178.092 90.203C178.845 88.709 180.751 85.8 182.326 83.737C183.902 81.675 184.824 79.987 184.375 79.987C183.926 79.987 185.238 78.846 187.291 77.451C190.749 75.101 192.608 72.957 189.773 74.588C189.047 75.006 188.872 74.926 189.356 74.397C189.815 73.897 190.715 73.467 191.356 73.442C191.998 73.417 192.373 72.742 192.19 71.942C192.006 71.142 192.193 70.824 192.605 71.235C193.016 71.647 195.191 70.924 197.438 69.63C209.118 62.899 225.176 60.802 239.523 64.135ZM76.6901 88.443C76.6901 89.244 76.3071 89.663 75.8401 89.374C75.3731 89.085 75.2491 88.43 75.5661 87.918C76.3741 86.61 76.6901 86.757 76.6901 88.443ZM357.523 87.987C357.183 88.537 356.369 88.98 355.714 88.972C354.998 88.962 355.122 88.569 356.023 87.987C357.944 86.745 358.29 86.745 357.523 87.987ZM197.516 219.976C197.866 220.542 197.465 220.71 196.575 220.369C194.843 219.704 194.526 218.987 195.964 218.987C196.482 218.987 197.18 219.432 197.516 219.976ZM292.4 229.01C291.042 230.368 286.795 231.165 287.565 229.918C287.893 229.388 288.489 229.157 288.89 229.405C289.291 229.652 290.272 229.442 291.071 228.936C293.01 227.71 293.664 227.746 292.4 229.01ZM272.195 347.713C273.179 348.531 274.06 348.611 274.838 347.955C275.481 347.413 275.779 347.28 275.501 347.659C274.806 348.606 280.086 353.987 281.71 353.987C282.432 353.987 283.023 354.37 283.023 354.838C283.023 356.022 297.989 366.55 299.192 366.212C299.731 366.061 299.917 366.349 299.606 366.853C299.018 367.804 303.955 371.6 305.273 371.209C305.686 371.087 305.911 371.549 305.773 372.237C305.636 372.924 306.306 373.425 307.262 373.35C308.219 373.275 308.792 373.552 308.536 373.966C308.01 374.817 311.881 378.623 312.878 378.237C313.233 378.1 313.523 378.378 313.523 378.856C313.523 379.333 315.998 382.41 319.023 385.693C322.048 388.975 325.556 392.972 326.819 394.574C328.082 396.176 328.798 396.812 328.409 395.987C328.02 395.162 328.037 394.787 328.446 395.154C328.855 395.52 329.146 396.086 329.093 396.41C329.04 396.735 330.213 399.36 331.7 402.244C333.187 405.128 334.488 407.937 334.592 408.487C334.695 409.037 335.735 412.572 336.902 416.342C339.505 424.755 339.799 440.588 337.514 449.359C336.685 452.544 336.307 455.676 336.675 456.319C337.043 456.961 336.99 457.168 336.557 456.778C336.125 456.388 334.296 459.147 332.493 462.91C330.69 466.672 328.721 470.055 328.119 470.428C327.516 470.8 327.023 471.555 327.023 472.105C327.023 472.655 327.543 472.784 328.178 472.392C328.899 471.946 329.06 472.118 328.608 472.849C328.21 473.493 327.535 473.803 327.107 473.539C326.679 473.274 324.948 474.617 323.261 476.522C321.574 478.428 319.705 479.987 319.108 479.987C318.511 479.987 318.023 480.437 318.023 480.987C318.023 481.537 317.374 481.987 316.58 481.987C315.786 481.987 314.427 482.999 313.56 484.237C312.694 485.475 311.845 486.262 311.676 485.987C311.506 485.712 309.742 486.362 307.756 487.431C305.77 488.501 304.366 489.733 304.636 490.17C304.906 490.607 304.487 490.718 303.704 490.418C302.921 490.118 301.548 490.605 300.652 491.501C299.756 492.397 299.023 492.879 299.023 492.573C299.023 492.267 296.684 492.938 293.826 494.065C282.735 498.437 269.034 501.051 254.023 501.66C241.106 502.184 236.134 501.897 216.523 499.49C215.423 499.355 213.848 498.989 213.023 498.677C209.163 497.216 196.292 493.72 194.368 493.61C193.184 493.542 192.373 493.23 192.567 492.916C192.869 492.427 183.442 488.585 182.023 488.618C181.748 488.625 180.902 488.009 180.144 487.251C179.386 486.493 178.125 486.118 177.342 486.418C176.554 486.721 176.192 486.523 176.53 485.976C176.866 485.432 176.926 484.987 176.664 484.987C176.401 484.987 175.401 484.686 174.441 484.317C173.123 483.811 172.897 483.995 173.519 485.067C173.973 485.848 174.009 486.187 173.6 485.82C173.191 485.454 172.927 484.842 173.014 484.461C173.198 483.646 163.536 476.987 162.169 476.987C161.657 476.987 160.967 476.283 160.637 475.424C160.301 474.549 159.526 474.176 158.876 474.578C158.198 474.997 157.982 474.862 158.357 474.255C159.158 472.959 156.64 470.731 155.521 471.746C155.071 472.153 155.004 471.96 155.372 471.317C155.753 470.653 154.634 468.988 152.783 467.465C150.99 465.99 150.146 465.119 150.908 465.528C151.67 465.938 151.248 464.858 149.97 463.13C147.456 459.728 145.399 458.909 146.475 461.737C146.997 463.108 146.878 463.225 145.925 462.279C144.969 461.331 144.97 460.755 145.932 459.596C146.924 458.402 146.763 457.727 145.09 456.054C143.953 454.917 143.241 453.987 143.508 453.987C143.932 453.987 143.288 452.11 139.566 442.487C138.242 439.064 137.765 432.911 137.92 421.237C138.111 406.938 138.344 404.068 139.273 404.642C139.685 404.896 140.023 404.381 140.023 403.496C140.023 402.612 140.697 400.584 141.521 398.991C142.345 397.397 143.166 395.133 143.345 393.958C143.524 392.783 144.088 391.522 144.597 391.155C145.106 390.787 147.088 388.246 149.001 385.507C150.913 382.767 153.96 379.225 155.772 377.635C158.537 375.207 158.869 374.482 157.842 373.115C156.849 371.793 156.864 371.703 157.919 372.635C158.926 373.524 160.606 372.814 165.371 369.487C168.755 367.124 173.893 364.102 176.791 362.773C179.688 361.443 181.726 360.024 181.321 359.618C180.916 359.213 181.432 359.207 182.468 359.604C183.879 360.146 184.146 359.995 183.533 359.002C182.986 358.118 183.1 357.917 183.877 358.397C185.717 359.534 189.247 358.012 188.611 356.356C188.191 355.262 188.455 355.129 189.681 355.815C191.55 356.861 195.023 356.209 195.023 354.811C195.023 354.293 195.369 354.083 195.792 354.344C196.729 354.923 214.301 350.601 213.658 349.949C213.407 349.695 215.074 349.418 217.363 349.333C219.651 349.249 226.248 348.492 232.023 347.651C244.649 345.813 269.956 345.853 272.195 347.713ZM291.023 357.38C291.023 357.596 290.325 358.041 289.471 358.369C288.581 358.71 288.18 358.542 288.53 357.976C289.117 357.025 291.023 356.57 291.023 357.38ZM299.147 362.254C298.159 363.234 298.045 363.119 298.587 361.694C298.963 360.708 299.522 360.153 299.83 360.461C300.138 360.768 299.831 361.575 299.147 362.254ZM120.023 370.428C120.023 370.671 119.573 371.147 119.023 371.487C118.473 371.827 118.023 371.628 118.023 371.046C118.023 370.464 118.473 369.987 119.023 369.987C119.573 369.987 120.023 370.185 120.023 370.428ZM154.812 377.386C154.103 378.156 153.365 378.636 153.173 378.453C152.58 377.889 154.083 375.987 155.121 375.987C155.661 375.987 155.522 376.617 154.812 377.386ZM109.023 379.332C109.023 379.522 108.01 380.534 106.773 381.582L104.523 383.487L106.428 381.237C108.218 379.123 109.023 378.532 109.023 379.332Z" fill="black"/>
</svg>
