<svg xmlns="http://www.w3.org/2000/svg" viewBox="0 0 128 128" role="img" aria-label="Lattes">
  <g fill="#FFFFFF">
    <path d="M31 16c24-2 43 9 55 26c8 11 12 22 14 36l-18-3c-1-11-5-20-11-28C63 35 49 28 33 29L31 16z"/>
    <path d="M16 64l44 8l-8-19c-7-15-7-28 1-38l-13-5c-12 13-14 31-7 47l6 14l-23-7z"/>
    <path d="M79 40c11 0 20 8 20 19s-9 19-20 19s-20-8-20-19s9-19 20-19zm0 12c-4 0-8 3-8 7s4 7 8 7s8-3 8-7s-4-7-8-7z"/>
    <path d="M90 55l20 14c5 4 9 9 10 16c1 9-2 17-7 24c-8 10-21 17-37 18L29 128L16 95l18 4l7 16l34-1c13-1 24-6 30-14c3-4 4-8 4-12c-1-4-3-7-6-10L84 66l6-11z"/>
    <path d="M19 80l42 8l-2 10l-42-8z"/>
  </g>
</svg>
