<svg width="366" height="442" viewBox="0 0 366 442" fill="none" xmlns="http://www.w3.org/2000/svg">
<path fill-rule="evenodd" clip-rule="evenodd" d="M107.852 2.36912C62.0043 10.9721 33.7353 32.2611 14.2273 72.8761C7.43628 87.0151 4.45128 97.7441 1.50228 118.607C-0.252723 131.022 -0.538727 164.689 1.00927 176.773C3.94727 199.717 9.06027 227.034 11.1463 230.932C11.6633 231.897 13.5423 232.923 15.3233 233.212C17.1043 233.5 25.0863 234.899 33.0613 236.321C48.7123 239.111 58.3683 240.808 75.5613 243.789C102.9 248.529 126.111 252.705 140.061 255.394C150.808 257.466 160.061 258.239 160.061 257.066C160.061 255.292 152.357 234.492 147.545 223.273C139.3 204.051 128.82 164.269 126.131 141.983C124.646 129.671 124.584 107.874 126.011 99.7731C131.589 68.1141 148.697 52.1361 184.561 45.0921C195.587 42.9261 227.639 42.6181 242.061 44.5381C275.061 48.9321 281.114 49.2351 285.173 46.6921C286.348 45.9571 286.327 45.4011 285.036 43.0731C283.319 39.9741 283.095 39.8411 266.561 32.1201C247.833 23.3731 233.256 18.0261 205.561 9.74112C200.744 8.30012 180.178 3.98612 172.561 2.81912C149.105 -0.775882 125.492 -0.939881 107.852 2.36912ZM189.561 82.7891C181.233 83.7491 175.564 85.6071 168.561 89.6741C150.09 100.401 142.322 120.123 148.013 141.849C154.839 167.911 173.084 186.957 203.561 199.838C209.717 202.439 217.852 203.961 228.061 204.419C238.412 204.884 240.393 204.681 247.887 202.384C252.466 200.981 258.541 198.495 261.387 196.86C267.251 193.491 274.707 186.096 277.879 180.504C283.031 171.419 284.624 156.008 281.598 144.516C273.857 115.112 238.29 86.5081 205.388 83.2281C202.183 82.9081 198.661 82.5231 197.561 82.3721C196.461 82.2211 192.861 82.4091 189.561 82.7891ZM296.244 96.4111C294.801 98.9891 296.79 107.72 302.014 121.745C308.864 140.137 310.507 148.409 310.461 164.273C310.406 183.352 306.816 193.605 294.396 210.154C277.801 232.266 247.12 249.32 207.061 258.7C183.864 264.131 160.309 266.003 130.561 264.778C94.7653 263.304 74.7643 260.106 33.5613 249.271C11.1123 243.368 10.0593 243.172 10.0683 244.91C10.0743 246.108 11.5063 250.069 19.0533 269.773C21.4823 276.115 33.0163 306.726 39.0233 322.773C41.8023 330.198 44.5163 337.173 45.0533 338.273C45.5913 339.373 49.0193 348.373 52.6713 358.273C56.3243 368.173 60.1013 378.298 61.0643 380.773C65.5353 392.256 69.5463 402.782 76.4343 421.104C80.5343 432.01 84.1493 441.194 84.4673 441.512C85.5863 442.631 122.667 435.624 143.061 430.44C157.048 426.884 158.598 426.423 178.561 419.873C241.895 399.094 290.932 368.371 324.417 328.489C337.146 313.328 351.184 287.976 358.589 266.773C363.004 254.132 363.921 249.212 365.023 232.273C367.04 201.249 358.244 169.78 339.588 141.273C332.349 130.212 327.212 123.827 314.078 109.566C302.423 96.9111 297.851 93.5391 296.244 96.4111Z" fill="white"/>
</svg>
